<svg id="svg" version="1.1" width="400" height="400" viewBox="0 0 400 400" xmlns="http://www.w3.org/2000/svg" xmlns:xlink="http://www.w3.org/1999/xlink" ><g id="svgg"><path id="path0" d="M177.600 15.557 C 177.600 16.928,177.420 17.583,177.000 17.745 C 176.568 17.910,176.400 18.587,176.400 20.164 C 176.400 21.368,176.220 22.464,176.000 22.600 C 175.780 22.736,175.600 23.897,175.600 25.181 C 175.600 26.886,175.438 27.576,175.000 27.745 C 174.567 27.911,174.400 28.590,174.400 30.187 C 174.400 31.404,174.220 32.400,174.000 32.400 C 173.780 32.400,173.600 33.278,173.600 34.351 C 173.600 35.597,173.383 36.482,173.000 36.800 C 172.670 37.074,172.400 37.546,172.400 37.849 C 172.400 38.152,172.220 38.400,172.000 38.400 C 171.780 38.400,171.600 38.670,171.600 39.000 C 171.600 39.373,171.222 39.600,170.600 39.600 C 170.050 39.600,169.600 39.780,169.600 40.000 C 169.600 40.220,169.150 40.400,168.600 40.400 C 167.978 40.400,167.600 40.627,167.600 41.000 C 167.600 41.373,167.222 41.600,166.600 41.600 C 166.050 41.600,165.600 41.780,165.600 42.000 C 165.600 42.220,165.150 42.400,164.600 42.400 C 163.978 42.400,163.600 42.627,163.600 43.000 C 163.600 43.373,163.222 43.600,162.600 43.600 C 162.050 43.600,161.600 43.780,161.600 44.000 C 161.600 44.220,161.150 44.400,160.600 44.400 C 159.978 44.400,159.600 44.627,159.600 45.000 C 159.600 45.373,159.222 45.600,158.600 45.600 C 158.050 45.600,157.600 45.780,157.600 46.000 C 157.600 46.220,157.150 46.400,156.600 46.400 C 155.978 46.400,155.600 46.627,155.600 47.000 C 155.600 47.373,155.222 47.600,154.600 47.600 C 154.050 47.600,153.600 47.780,153.600 48.000 C 153.600 48.220,153.150 48.400,152.600 48.400 C 151.978 48.400,151.600 48.627,151.600 49.000 C 151.600 49.373,151.222 49.600,150.600 49.600 C 150.050 49.600,149.600 49.423,149.600 49.208 C 149.600 48.992,149.150 48.702,148.600 48.564 C 148.050 48.426,147.600 48.153,147.600 47.957 C 147.600 47.760,147.330 47.600,147.000 47.600 C 146.670 47.600,146.400 47.395,146.400 47.144 C 146.400 46.603,145.204 45.631,144.516 45.613 C 144.250 45.606,143.298 44.880,142.400 44.000 C 141.502 43.120,140.505 42.400,140.184 42.400 C 139.863 42.400,139.600 42.220,139.600 42.000 C 139.600 41.780,139.330 41.600,139.000 41.600 C 138.670 41.600,138.400 41.395,138.400 41.144 C 138.400 40.603,137.204 39.631,136.516 39.613 C 136.250 39.606,135.298 38.880,134.400 38.000 C 133.502 37.120,132.505 36.400,132.184 36.400 C 131.863 36.400,131.600 36.220,131.600 36.000 C 131.600 35.780,131.330 35.600,131.000 35.600 C 130.670 35.600,130.400 35.330,130.400 35.000 C 130.400 34.581,129.978 34.400,129.000 34.400 C 128.022 34.400,127.600 34.581,127.600 35.000 C 127.600 35.330,127.407 35.600,127.171 35.600 C 126.618 35.600,125.600 36.618,125.600 37.171 C 125.600 37.407,125.407 37.600,125.171 37.600 C 124.618 37.600,123.600 38.618,123.600 39.171 C 123.600 39.407,123.407 39.600,123.171 39.600 C 122.618 39.600,121.600 40.618,121.600 41.171 C 121.600 41.407,121.407 41.600,121.171 41.600 C 120.618 41.600,119.600 42.618,119.600 43.171 C 119.600 43.407,119.407 43.600,119.171 43.600 C 118.618 43.600,117.600 44.618,117.600 45.171 C 117.600 45.407,117.407 45.600,117.171 45.600 C 116.618 45.600,115.600 46.618,115.600 47.171 C 115.600 47.407,115.407 47.600,115.171 47.600 C 114.618 47.600,113.600 48.618,113.600 49.171 C 113.600 49.407,113.407 49.600,113.171 49.600 C 112.618 49.600,111.600 50.618,111.600 51.171 C 111.600 51.407,111.407 51.600,111.171 51.600 C 110.618 51.600,109.600 52.618,109.600 53.171 C 109.600 53.407,109.407 53.600,109.171 53.600 C 108.936 53.600,108.486 53.857,108.171 54.171 C 107.857 54.486,107.600 54.936,107.600 55.171 C 107.600 55.407,107.407 55.600,107.171 55.600 C 106.936 55.600,106.486 55.857,106.171 56.171 C 105.857 56.486,105.600 56.936,105.600 57.171 C 105.600 57.407,105.407 57.600,105.171 57.600 C 104.936 57.600,104.486 57.857,104.171 58.171 C 103.857 58.486,103.600 58.936,103.600 59.171 C 103.600 59.407,103.407 59.600,103.171 59.600 C 102.618 59.600,101.600 60.618,101.600 61.171 C 101.600 61.407,101.330 61.600,101.000 61.600 C 100.581 61.600,100.400 62.022,100.400 63.000 C 100.400 63.978,100.581 64.400,101.000 64.400 C 101.346 64.400,101.600 64.761,101.600 65.253 C 101.600 65.722,102.230 66.700,103.000 67.426 C 103.770 68.152,104.400 69.034,104.400 69.386 C 104.400 69.737,104.670 70.129,105.000 70.255 C 105.330 70.382,105.600 70.659,105.600 70.871 C 105.600 71.390,106.638 72.400,107.171 72.400 C 107.407 72.400,107.600 72.784,107.600 73.253 C 107.600 73.722,108.230 74.700,109.000 75.426 C 109.770 76.152,110.400 77.034,110.400 77.386 C 110.400 77.737,110.670 78.129,111.000 78.255 C 111.330 78.382,111.600 78.659,111.600 78.871 C 111.600 79.390,112.638 80.400,113.171 80.400 C 113.407 80.400,113.600 80.784,113.600 81.254 C 113.600 81.724,114.050 82.525,114.600 83.035 C 115.705 84.059,115.945 85.600,115.000 85.600 C 114.627 85.600,114.400 85.978,114.400 86.600 C 114.400 87.150,114.220 87.600,114.000 87.600 C 113.780 87.600,113.600 88.031,113.600 88.557 C 113.600 89.084,113.330 89.618,113.000 89.745 C 112.670 89.871,112.400 90.341,112.400 90.787 C 112.400 91.234,112.220 91.600,112.000 91.600 C 111.780 91.600,111.600 92.031,111.600 92.557 C 111.600 93.084,111.330 93.618,111.000 93.745 C 110.649 93.879,110.400 94.479,110.400 95.187 C 110.400 95.854,110.220 96.400,110.000 96.400 C 109.780 96.400,109.600 96.831,109.600 97.357 C 109.600 97.884,109.330 98.418,109.000 98.545 C 108.670 98.671,108.400 99.141,108.400 99.587 C 108.400 100.034,108.220 100.400,108.000 100.400 C 107.780 100.400,107.600 100.831,107.600 101.357 C 107.600 101.884,107.330 102.418,107.000 102.545 C 106.670 102.671,106.400 103.053,106.400 103.393 C 106.400 103.963,106.011 104.881,105.126 106.400 C 104.934 106.730,104.671 107.315,104.542 107.700 C 104.374 108.201,103.879 108.400,102.802 108.400 C 101.953 108.400,101.081 108.661,100.800 109.000 C 100.430 109.446,99.442 109.600,96.951 109.600 C 94.984 109.600,93.600 109.765,93.600 110.000 C 93.600 110.229,92.396 110.400,90.787 110.400 C 88.656 110.400,87.919 110.545,87.745 111.000 C 87.569 111.458,86.817 111.600,84.557 111.600 C 82.852 111.600,81.600 111.769,81.600 112.000 C 81.600 112.220,81.150 112.400,80.600 112.400 L 79.600 112.400 79.600 132.856 C 79.600 156.933,78.872 154.369,85.713 154.387 C 89.524 154.398,90.469 154.515,90.655 155.000 C 90.842 155.487,91.781 155.600,95.619 155.600 C 98.343 155.600,100.458 155.770,100.600 156.000 C 100.736 156.220,101.917 156.400,103.224 156.400 C 105.069 156.400,105.600 156.534,105.600 157.000 C 105.600 157.330,105.780 157.600,106.000 157.600 C 106.220 157.600,106.400 158.230,106.400 159.000 C 106.400 159.978,106.581 160.400,107.000 160.400 C 107.417 160.400,107.600 160.820,107.600 161.776 C 107.600 162.533,107.780 163.264,108.000 163.400 C 108.220 163.536,108.400 164.002,108.400 164.436 C 108.400 164.870,108.670 165.329,109.000 165.455 C 109.370 165.597,109.600 166.205,109.600 167.043 C 109.600 167.789,109.780 168.400,110.000 168.400 C 110.220 168.400,110.400 168.927,110.400 169.571 C 110.400 170.216,110.670 171.013,111.000 171.343 C 111.330 171.673,111.600 172.496,111.600 173.171 C 111.600 173.847,111.780 174.400,112.000 174.400 C 112.220 174.400,112.400 174.850,112.400 175.400 C 112.400 176.022,112.627 176.400,113.000 176.400 C 113.433 176.400,113.600 176.844,113.600 178.000 C 113.600 178.880,113.780 179.600,114.000 179.600 C 114.802 179.600,114.373 181.430,113.400 182.161 C 112.850 182.574,112.400 183.247,112.400 183.656 C 112.400 184.065,112.220 184.400,112.000 184.400 C 111.780 184.400,111.600 184.651,111.600 184.957 C 111.600 185.264,111.330 185.618,111.000 185.745 C 110.670 185.871,110.400 186.258,110.400 186.605 C 110.400 186.951,109.950 187.720,109.400 188.313 C 108.850 188.907,108.400 189.619,108.400 189.896 C 108.400 190.173,108.220 190.400,108.000 190.400 C 107.780 190.400,107.600 190.651,107.600 190.957 C 107.600 191.264,107.330 191.618,107.000 191.745 C 106.670 191.871,106.400 192.258,106.400 192.605 C 106.400 192.951,105.950 193.720,105.400 194.313 C 104.850 194.907,104.400 195.619,104.400 195.896 C 104.400 196.173,104.220 196.400,104.000 196.400 C 103.780 196.400,103.600 196.769,103.600 197.219 C 103.600 197.670,103.150 198.455,102.600 198.965 C 102.050 199.475,101.600 200.276,101.600 200.746 C 101.600 201.238,101.346 201.600,101.000 201.600 C 100.581 201.600,100.400 202.022,100.400 203.000 C 100.400 203.978,100.581 204.400,101.000 204.400 C 101.330 204.400,101.600 204.593,101.600 204.829 C 101.600 205.382,102.618 206.400,103.171 206.400 C 103.407 206.400,103.600 206.593,103.600 206.829 C 103.600 207.382,104.618 208.400,105.171 208.400 C 105.407 208.400,105.600 208.593,105.600 208.829 C 105.600 209.382,106.618 210.400,107.171 210.400 C 107.407 210.400,107.600 210.593,107.600 210.829 C 107.600 211.382,108.618 212.400,109.171 212.400 C 109.407 212.400,109.600 212.593,109.600 212.829 C 109.600 213.382,110.618 214.400,111.171 214.400 C 111.407 214.400,111.600 214.593,111.600 214.829 C 111.600 215.382,112.618 216.400,113.171 216.400 C 113.407 216.400,113.600 216.593,113.600 216.829 C 113.600 217.382,114.618 218.400,115.171 218.400 C 115.407 218.400,115.600 218.593,115.600 218.829 C 115.600 219.382,116.618 220.400,117.171 220.400 C 117.407 220.400,117.600 220.593,117.600 220.829 C 117.600 221.382,118.618 222.400,119.171 222.400 C 119.407 222.400,119.600 222.593,119.600 222.829 C 119.600 223.382,120.618 224.400,121.171 224.400 C 121.407 224.400,121.600 224.593,121.600 224.829 C 121.600 225.382,122.618 226.400,123.171 226.400 C 123.407 226.400,123.600 226.593,123.600 226.829 C 123.600 227.382,124.618 228.400,125.171 228.400 C 125.407 228.400,125.600 228.593,125.600 228.829 C 125.600 229.382,126.618 230.400,127.171 230.400 C 127.407 230.400,127.600 230.670,127.600 231.000 C 127.600 231.419,128.022 231.600,129.000 231.600 C 129.978 231.600,130.400 231.419,130.400 231.000 C 130.400 230.670,130.670 230.400,131.000 230.400 C 131.330 230.400,131.600 230.220,131.600 230.000 C 131.600 229.780,131.935 229.600,132.344 229.600 C 132.753 229.600,133.426 229.150,133.839 228.600 C 134.252 228.050,134.817 227.600,135.095 227.600 C 135.373 227.600,135.600 227.407,135.600 227.171 C 135.600 226.529,136.655 225.600,137.384 225.600 C 137.737 225.600,138.129 225.330,138.255 225.000 C 138.382 224.670,138.659 224.400,138.871 224.400 C 139.390 224.400,140.400 223.362,140.400 222.829 C 140.400 222.593,140.670 222.400,141.000 222.400 C 141.330 222.400,141.600 222.220,141.600 222.000 C 141.600 221.780,141.935 221.600,142.344 221.600 C 142.753 221.600,143.426 221.150,143.839 220.600 C 144.252 220.050,144.817 219.600,145.095 219.600 C 145.373 219.600,145.600 219.407,145.600 219.171 C 145.600 218.529,146.655 217.600,147.384 217.600 C 147.737 217.600,148.129 217.330,148.255 217.000 C 148.382 216.670,148.922 216.400,149.455 216.400 C 149.989 216.400,150.529 216.670,150.655 217.000 C 150.797 217.370,151.405 217.600,152.243 217.600 C 152.989 217.600,153.600 217.780,153.600 218.000 C 153.600 218.220,154.211 218.400,154.957 218.400 C 155.795 218.400,156.403 218.630,156.545 219.000 C 156.671 219.330,157.130 219.600,157.564 219.600 C 157.998 219.600,158.464 219.780,158.600 220.000 C 158.736 220.220,159.447 220.400,160.181 220.400 C 160.997 220.400,161.604 220.633,161.745 221.000 C 161.879 221.351,162.479 221.600,163.187 221.600 C 163.854 221.600,164.400 221.780,164.400 222.000 C 164.400 222.220,165.120 222.400,166.000 222.400 L 167.600 222.400 167.600 211.000 C 167.600 203.667,167.743 199.600,168.000 199.600 C 168.220 199.600,168.400 198.700,168.400 197.600 C 168.400 195.733,168.333 195.600,167.400 195.600 C 166.778 195.600,166.400 195.373,166.400 195.000 C 166.400 194.627,166.022 194.400,165.400 194.400 C 164.850 194.400,164.400 194.220,164.400 194.000 C 164.400 193.780,163.950 193.600,163.400 193.600 C 162.850 193.600,162.400 193.395,162.400 193.144 C 162.400 192.590,161.197 191.630,160.481 191.613 C 160.195 191.606,159.545 191.150,159.035 190.600 C 158.525 190.050,157.724 189.600,157.254 189.600 C 156.784 189.600,156.400 189.407,156.400 189.171 C 156.400 188.638,155.390 187.600,154.871 187.600 C 154.659 187.600,154.382 187.330,154.255 187.000 C 154.129 186.670,153.754 186.400,153.423 186.400 C 152.769 186.400,145.600 179.426,145.600 178.789 C 145.600 178.575,145.330 178.400,145.000 178.400 C 144.670 178.400,144.394 178.085,144.387 177.700 C 144.372 176.835,143.471 175.600,142.856 175.600 C 142.605 175.600,142.400 175.330,142.400 175.000 C 142.400 174.670,142.220 174.400,142.000 174.400 C 141.780 174.400,141.600 174.121,141.600 173.781 C 141.600 173.440,141.150 172.745,140.600 172.235 C 140.050 171.725,139.600 171.008,139.600 170.642 C 139.600 170.275,139.330 169.871,139.000 169.745 C 138.670 169.618,138.400 169.264,138.400 168.957 C 138.400 168.651,138.220 168.400,138.000 168.400 C 137.780 168.400,137.600 168.034,137.600 167.587 C 137.600 167.141,137.330 166.671,137.000 166.545 C 136.670 166.418,136.400 165.984,136.400 165.581 C 136.400 165.177,136.220 164.736,136.000 164.600 C 135.780 164.464,135.600 164.023,135.600 163.619 C 135.600 163.216,135.330 162.782,135.000 162.655 C 134.670 162.529,134.400 161.969,134.400 161.413 C 134.400 160.856,134.220 160.400,134.000 160.400 C 133.780 160.400,133.600 160.034,133.600 159.587 C 133.600 159.141,133.330 158.671,133.000 158.545 C 132.630 158.403,132.400 157.795,132.400 156.957 C 132.400 156.211,132.220 155.600,132.000 155.600 C 131.780 155.600,131.600 154.784,131.600 153.787 C 131.600 152.545,131.411 151.902,131.000 151.745 C 130.580 151.583,130.400 150.928,130.400 149.557 C 130.400 148.481,130.220 147.600,130.000 147.600 C 129.779 147.600,129.600 146.548,129.600 145.243 C 129.600 143.516,129.439 142.824,129.000 142.655 C 128.493 142.461,128.400 141.126,128.400 134.055 C 128.400 126.985,128.493 125.650,129.000 125.455 C 129.454 125.281,129.600 124.546,129.600 122.436 C 129.600 120.902,129.780 119.536,130.000 119.400 C 130.220 119.264,130.400 118.373,130.400 117.419 C 130.400 116.247,130.594 115.611,131.000 115.455 C 131.377 115.311,131.600 114.699,131.600 113.813 C 131.600 113.036,131.780 112.400,132.000 112.400 C 132.220 112.400,132.400 111.770,132.400 111.000 C 132.400 110.022,132.581 109.600,133.000 109.600 C 133.369 109.600,133.600 109.225,133.600 108.624 C 133.600 108.087,133.780 107.536,134.000 107.400 C 134.220 107.264,134.400 106.533,134.400 105.776 C 134.400 104.820,134.583 104.400,135.000 104.400 C 135.373 104.400,135.600 104.022,135.600 103.400 C 135.600 102.850,135.780 102.400,136.000 102.400 C 136.220 102.400,136.400 101.950,136.400 101.400 C 136.400 100.850,136.605 100.400,136.856 100.400 C 137.471 100.400,138.372 99.165,138.387 98.300 C 138.394 97.915,138.670 97.600,139.000 97.600 C 139.373 97.600,139.600 97.222,139.600 96.600 C 139.600 96.050,139.780 95.600,140.000 95.600 C 140.220 95.600,140.400 95.330,140.400 95.000 C 140.400 94.670,140.605 94.400,140.856 94.400 C 141.471 94.400,142.372 93.165,142.387 92.300 C 142.394 91.915,142.670 91.600,143.000 91.600 C 143.330 91.600,143.600 91.407,143.600 91.171 C 143.600 90.618,144.618 89.600,145.171 89.600 C 145.407 89.600,145.600 89.425,145.600 89.211 C 145.600 88.703,152.703 81.600,153.211 81.600 C 153.425 81.600,153.600 81.407,153.600 81.171 C 153.600 80.529,154.655 79.600,155.384 79.600 C 155.737 79.600,156.129 79.330,156.255 79.000 C 156.382 78.670,156.659 78.400,156.871 78.400 C 157.390 78.400,158.400 77.362,158.400 76.829 C 158.400 76.593,158.850 76.400,159.400 76.400 C 159.950 76.400,160.400 76.220,160.400 76.000 C 160.400 75.780,160.766 75.600,161.213 75.600 C 161.659 75.600,162.129 75.330,162.255 75.000 C 162.382 74.670,162.736 74.400,163.043 74.400 C 163.349 74.400,163.600 74.220,163.600 74.000 C 163.600 73.780,164.050 73.600,164.600 73.600 C 165.222 73.600,165.600 73.373,165.600 73.000 C 165.600 72.627,165.978 72.400,166.600 72.400 C 167.150 72.400,167.600 72.220,167.600 72.000 C 167.600 71.780,168.050 71.600,168.600 71.600 C 169.222 71.600,169.600 71.373,169.600 71.000 C 169.600 70.581,170.022 70.400,171.000 70.400 C 171.770 70.400,172.400 70.220,172.400 70.000 C 172.400 69.780,172.850 69.600,173.400 69.600 C 174.022 69.600,174.400 69.373,174.400 69.000 C 174.400 68.567,174.844 68.400,176.000 68.400 C 176.880 68.400,177.600 68.220,177.600 68.000 C 177.600 67.780,178.500 67.600,179.600 67.600 C 181.111 67.600,181.600 67.453,181.600 67.000 C 181.600 66.533,182.133 66.400,184.000 66.400 C 185.333 66.400,186.400 66.222,186.400 66.000 C 186.400 65.742,190.867 65.600,199.000 65.600 C 207.133 65.600,211.600 65.742,211.600 66.000 C 211.600 66.221,212.652 66.400,213.957 66.400 C 215.684 66.400,216.376 66.561,216.545 67.000 C 216.702 67.411,217.345 67.600,218.587 67.600 C 219.584 67.600,220.400 67.780,220.400 68.000 C 220.400 68.220,221.120 68.400,222.000 68.400 C 223.156 68.400,223.600 68.567,223.600 69.000 C 223.600 69.373,223.978 69.600,224.600 69.600 C 225.150 69.600,225.600 69.780,225.600 70.000 C 225.600 70.220,226.211 70.400,226.957 70.400 C 227.795 70.400,228.403 70.630,228.545 71.000 C 228.671 71.330,229.141 71.600,229.587 71.600 C 230.034 71.600,230.400 71.780,230.400 72.000 C 230.400 72.220,230.831 72.400,231.357 72.400 C 231.884 72.400,232.418 72.670,232.545 73.000 C 232.671 73.330,233.141 73.600,233.587 73.600 C 234.034 73.600,234.400 73.780,234.400 74.000 C 234.400 74.220,234.651 74.400,234.957 74.400 C 235.264 74.400,235.618 74.670,235.745 75.000 C 235.871 75.330,236.341 75.600,236.787 75.600 C 237.234 75.600,237.600 75.780,237.600 76.000 C 237.600 76.220,238.050 76.400,238.600 76.400 C 239.150 76.400,239.600 76.593,239.600 76.829 C 239.600 77.362,240.610 78.400,241.129 78.400 C 241.341 78.400,241.618 78.670,241.745 79.000 C 241.871 79.330,242.257 79.600,242.601 79.600 C 243.326 79.600,255.594 91.770,255.613 92.508 C 255.631 93.202,256.600 94.400,257.144 94.400 C 257.395 94.400,257.600 94.784,257.600 95.254 C 257.600 95.724,258.050 96.525,258.600 97.035 C 259.150 97.545,259.606 98.195,259.613 98.481 C 259.630 99.197,260.590 100.400,261.144 100.400 C 261.395 100.400,261.600 100.850,261.600 101.400 C 261.600 101.950,261.780 102.400,262.000 102.400 C 262.220 102.400,262.400 102.850,262.400 103.400 C 262.400 104.022,262.627 104.400,263.000 104.400 C 263.417 104.400,263.600 104.820,263.600 105.776 C 263.600 106.533,263.780 107.264,264.000 107.400 C 264.220 107.536,264.400 108.002,264.400 108.436 C 264.400 108.870,264.670 109.329,265.000 109.455 C 265.370 109.597,265.600 110.205,265.600 111.043 C 265.600 111.789,265.780 112.400,266.000 112.400 C 266.220 112.400,266.400 113.036,266.400 113.813 C 266.400 114.699,266.623 115.311,267.000 115.455 C 267.406 115.611,267.600 116.247,267.600 117.419 C 267.600 118.373,267.780 119.264,268.000 119.400 C 268.220 119.536,268.400 120.794,268.400 122.195 C 268.400 123.926,268.592 124.935,269.000 125.343 C 269.492 125.835,269.600 127.341,269.600 133.729 C 269.600 140.280,269.505 141.551,269.000 141.745 C 268.545 141.919,268.400 142.656,268.400 144.787 C 268.400 146.396,268.229 147.600,268.000 147.600 C 267.780 147.600,267.600 148.481,267.600 149.557 C 267.600 150.928,267.420 151.583,267.000 151.745 C 266.589 151.902,266.400 152.545,266.400 153.787 C 266.400 154.784,266.220 155.600,266.000 155.600 C 265.780 155.600,265.600 156.031,265.600 156.557 C 265.600 157.084,265.330 157.618,265.000 157.745 C 264.649 157.879,264.400 158.479,264.400 159.187 C 264.400 159.854,264.220 160.400,264.000 160.400 C 263.780 160.400,263.600 160.839,263.600 161.376 C 263.600 161.913,263.431 162.457,263.225 162.584 C 262.749 162.879,261.600 165.165,261.600 165.819 C 261.600 166.091,261.330 166.418,261.000 166.545 C 260.670 166.671,260.400 167.141,260.400 167.587 C 260.400 168.034,260.220 168.400,260.000 168.400 C 259.780 168.400,259.600 168.651,259.600 168.957 C 259.600 169.264,259.330 169.618,259.000 169.745 C 258.670 169.871,258.400 170.258,258.400 170.605 C 258.400 170.951,257.950 171.720,257.400 172.313 C 256.850 172.907,256.400 173.619,256.400 173.896 C 256.400 174.173,256.220 174.400,256.000 174.400 C 255.780 174.400,255.600 174.670,255.600 175.000 C 255.600 175.330,255.395 175.600,255.144 175.600 C 254.604 175.600,253.631 176.796,253.613 177.481 C 253.594 178.194,245.282 186.400,244.579 186.400 C 244.247 186.400,243.871 186.670,243.745 187.000 C 243.618 187.330,243.341 187.600,243.129 187.600 C 242.610 187.600,241.600 188.638,241.600 189.171 C 241.600 189.407,241.216 189.600,240.746 189.600 C 240.276 189.600,239.475 190.050,238.965 190.600 C 238.455 191.150,237.805 191.606,237.519 191.613 C 236.803 191.630,235.600 192.590,235.600 193.144 C 235.600 193.395,235.150 193.600,234.600 193.600 C 234.050 193.600,233.600 193.780,233.600 194.000 C 233.600 194.220,233.150 194.400,232.600 194.400 C 231.978 194.400,231.600 194.627,231.600 195.000 C 231.600 195.373,231.222 195.600,230.600 195.600 L 229.600 195.600 229.613 208.300 C 229.623 218.226,229.741 221.153,230.157 221.700 C 230.731 222.456,233.600 222.706,233.600 222.000 C 233.600 221.780,234.146 221.600,234.813 221.600 C 235.521 221.600,236.121 221.351,236.255 221.000 C 236.396 220.633,237.003 220.400,237.819 220.400 C 238.553 220.400,239.264 220.220,239.400 220.000 C 239.536 219.780,240.087 219.600,240.624 219.600 C 241.225 219.600,241.600 219.369,241.600 219.000 C 241.600 218.581,242.022 218.400,243.000 218.400 C 243.770 218.400,244.400 218.220,244.400 218.000 C 244.400 217.780,245.036 217.600,245.813 217.600 C 246.699 217.600,247.311 217.377,247.455 217.000 C 247.582 216.670,248.097 216.400,248.600 216.400 C 249.103 216.400,249.618 216.670,249.745 217.000 C 249.871 217.330,250.253 217.600,250.593 217.600 C 250.932 217.600,252.106 218.500,253.200 219.600 C 254.294 220.700,255.462 221.600,255.795 221.600 C 256.128 221.600,256.400 221.780,256.400 222.000 C 256.400 222.220,256.670 222.400,257.000 222.400 C 257.330 222.400,257.600 222.593,257.600 222.829 C 257.600 223.362,258.610 224.400,259.129 224.400 C 259.341 224.400,259.618 224.670,259.745 225.000 C 259.871 225.330,260.253 225.600,260.593 225.600 C 260.932 225.600,262.106 226.500,263.200 227.600 C 264.294 228.700,265.462 229.600,265.795 229.600 C 266.128 229.600,266.400 229.780,266.400 230.000 C 266.400 230.220,266.670 230.400,267.000 230.400 C 267.330 230.400,267.600 230.670,267.600 231.000 C 267.600 231.419,268.022 231.600,269.000 231.600 C 269.978 231.600,270.400 231.419,270.400 231.000 C 270.400 230.670,270.593 230.400,270.829 230.400 C 271.382 230.400,272.400 229.382,272.400 228.829 C 272.400 228.593,272.593 228.400,272.829 228.400 C 273.382 228.400,274.400 227.382,274.400 226.829 C 274.400 226.593,274.593 226.400,274.829 226.400 C 275.382 226.400,276.400 225.382,276.400 224.829 C 276.400 224.593,276.593 224.400,276.829 224.400 C 277.382 224.400,278.400 223.382,278.400 222.829 C 278.400 222.593,278.593 222.400,278.829 222.400 C 279.382 222.400,280.400 221.382,280.400 220.829 C 280.400 220.593,280.593 220.400,280.829 220.400 C 281.382 220.400,282.400 219.382,282.400 218.829 C 282.400 218.593,282.593 218.400,282.829 218.400 C 283.382 218.400,284.400 217.382,284.400 216.829 C 284.400 216.593,284.593 216.400,284.829 216.400 C 285.382 216.400,286.400 215.382,286.400 214.829 C 286.400 214.593,286.593 214.400,286.829 214.400 C 287.064 214.400,287.514 214.143,287.829 213.829 C 288.143 213.514,288.400 213.064,288.400 212.829 C 288.400 212.593,288.593 212.400,288.829 212.400 C 289.064 212.400,289.514 212.143,289.829 211.829 C 290.143 211.514,290.400 211.064,290.400 210.829 C 290.400 210.593,290.593 210.400,290.829 210.400 C 291.064 210.400,291.514 210.143,291.829 209.829 C 292.143 209.514,292.400 209.064,292.400 208.829 C 292.400 208.593,292.593 208.400,292.829 208.400 C 293.064 208.400,293.514 208.143,293.829 207.829 C 294.143 207.514,294.400 207.064,294.400 206.829 C 294.400 206.593,294.593 206.400,294.829 206.400 C 295.064 206.400,295.514 206.143,295.829 205.829 C 296.143 205.514,296.400 205.064,296.400 204.829 C 296.400 204.593,296.670 204.400,297.000 204.400 C 297.419 204.400,297.600 203.978,297.600 203.000 C 297.600 202.022,297.419 201.600,297.000 201.600 C 296.654 201.600,296.400 201.238,296.400 200.746 C 296.400 200.276,295.950 199.475,295.400 198.965 C 294.850 198.455,294.400 197.670,294.400 197.219 C 294.400 196.769,294.220 196.400,294.000 196.400 C 293.780 196.400,293.600 196.121,293.600 195.781 C 293.600 195.440,293.150 194.745,292.600 194.235 C 292.050 193.725,291.600 193.008,291.600 192.642 C 291.600 192.275,291.330 191.871,291.000 191.745 C 290.670 191.618,290.400 191.264,290.400 190.957 C 290.400 190.651,290.220 190.400,290.000 190.400 C 289.780 190.400,289.600 190.121,289.600 189.781 C 289.600 189.440,289.150 188.745,288.600 188.235 C 288.050 187.725,287.600 187.008,287.600 186.642 C 287.600 186.275,287.330 185.871,287.000 185.745 C 286.670 185.618,286.400 185.264,286.400 184.957 C 286.400 184.651,286.220 184.400,286.000 184.400 C 285.780 184.400,285.600 184.065,285.600 183.656 C 285.600 183.247,285.150 182.574,284.600 182.161 C 283.627 181.430,283.198 179.600,284.000 179.600 C 284.220 179.600,284.400 178.880,284.400 178.000 C 284.400 176.844,284.567 176.400,285.000 176.400 C 285.373 176.400,285.600 176.022,285.600 175.400 C 285.600 174.850,285.780 174.400,286.000 174.400 C 286.220 174.400,286.400 173.789,286.400 173.043 C 286.400 172.205,286.630 171.597,287.000 171.455 C 287.377 171.311,287.600 170.699,287.600 169.813 C 287.600 169.036,287.780 168.400,288.000 168.400 C 288.220 168.400,288.400 167.770,288.400 167.000 C 288.400 166.022,288.581 165.600,289.000 165.600 C 289.369 165.600,289.600 165.225,289.600 164.624 C 289.600 164.087,289.780 163.536,290.000 163.400 C 290.220 163.264,290.400 162.553,290.400 161.819 C 290.400 161.003,290.633 160.396,291.000 160.255 C 291.351 160.121,291.600 159.521,291.600 158.813 C 291.600 158.146,291.780 157.600,292.000 157.600 C 292.220 157.600,292.400 157.330,292.400 157.000 C 292.400 156.534,292.931 156.400,294.776 156.400 C 296.083 156.400,297.264 156.220,297.400 156.000 C 297.543 155.769,299.675 155.600,302.436 155.600 C 306.324 155.600,307.268 155.487,307.455 155.000 C 307.641 154.515,308.580 154.398,312.343 154.387 C 319.118 154.369,318.400 156.922,318.400 132.856 L 318.400 112.400 317.400 112.400 C 316.850 112.400,316.400 112.220,316.400 112.000 C 316.400 111.769,315.148 111.600,313.443 111.600 C 311.183 111.600,310.431 111.458,310.255 111.000 C 310.081 110.545,309.344 110.400,307.213 110.400 C 305.604 110.400,304.400 110.229,304.400 110.000 C 304.400 109.766,303.057 109.600,301.171 109.600 C 298.835 109.600,297.777 109.434,297.343 109.000 C 297.013 108.670,296.036 108.400,295.171 108.400 C 293.896 108.400,293.600 108.257,293.600 107.643 C 293.600 107.226,293.330 106.782,293.000 106.655 C 292.670 106.529,292.400 106.070,292.400 105.636 C 292.400 105.202,292.220 104.736,292.000 104.600 C 291.780 104.464,291.600 103.998,291.600 103.564 C 291.600 103.130,291.330 102.671,291.000 102.545 C 290.670 102.418,290.400 101.884,290.400 101.357 C 290.400 100.831,290.220 100.400,290.000 100.400 C 289.780 100.400,289.600 100.034,289.600 99.587 C 289.600 99.141,289.330 98.671,289.000 98.545 C 288.670 98.418,288.400 97.884,288.400 97.357 C 288.400 96.831,288.220 96.400,288.000 96.400 C 287.780 96.400,287.600 96.034,287.600 95.587 C 287.600 95.141,287.330 94.671,287.000 94.545 C 286.630 94.403,286.400 93.795,286.400 92.957 C 286.400 92.211,286.220 91.600,286.000 91.600 C 285.780 91.600,285.600 91.234,285.600 90.787 C 285.600 90.341,285.330 89.871,285.000 89.745 C 284.670 89.618,284.400 89.084,284.400 88.557 C 284.400 88.031,284.220 87.600,284.000 87.600 C 283.780 87.600,283.600 87.150,283.600 86.600 C 283.600 85.978,283.373 85.600,283.000 85.600 C 282.627 85.600,282.400 85.222,282.400 84.600 C 282.400 83.978,282.627 83.600,283.000 83.600 C 283.330 83.600,283.600 83.330,283.600 83.000 C 283.600 82.670,283.780 82.400,284.000 82.400 C 284.220 82.400,284.400 81.950,284.400 81.400 C 284.400 80.850,284.593 80.400,284.829 80.400 C 285.362 80.400,286.400 79.390,286.400 78.871 C 286.400 78.659,286.670 78.382,287.000 78.255 C 287.330 78.129,287.600 77.737,287.600 77.384 C 287.600 76.655,288.529 75.600,289.171 75.600 C 289.407 75.600,289.600 75.330,289.600 75.000 C 289.600 74.670,289.780 74.400,290.000 74.400 C 290.220 74.400,290.400 73.950,290.400 73.400 C 290.400 72.850,290.593 72.400,290.829 72.400 C 291.362 72.400,292.400 71.390,292.400 70.871 C 292.400 70.659,292.670 70.382,293.000 70.255 C 293.330 70.129,293.600 69.737,293.600 69.384 C 293.600 68.655,294.529 67.600,295.171 67.600 C 295.407 67.600,295.600 67.330,295.600 67.000 C 295.600 66.670,295.780 66.400,296.000 66.400 C 296.220 66.400,296.400 65.950,296.400 65.400 C 296.400 64.778,296.627 64.400,297.000 64.400 C 297.419 64.400,297.600 63.978,297.600 63.000 C 297.600 62.022,297.419 61.600,297.000 61.600 C 296.670 61.600,296.400 61.407,296.400 61.171 C 296.400 60.618,295.382 59.600,294.829 59.600 C 294.593 59.600,294.400 59.407,294.400 59.171 C 294.400 58.618,293.382 57.600,292.829 57.600 C 292.593 57.600,292.400 57.407,292.400 57.171 C 292.400 56.618,291.382 55.600,290.829 55.600 C 290.593 55.600,290.400 55.407,290.400 55.171 C 290.400 54.618,289.382 53.600,288.829 53.600 C 288.593 53.600,288.400 53.407,288.400 53.171 C 288.400 52.618,287.382 51.600,286.829 51.600 C 286.593 51.600,286.400 51.407,286.400 51.171 C 286.400 50.618,285.382 49.600,284.829 49.600 C 284.593 49.600,284.400 49.407,284.400 49.171 C 284.400 48.618,283.382 47.600,282.829 47.600 C 282.593 47.600,282.400 47.407,282.400 47.171 C 282.400 46.618,281.382 45.600,280.829 45.600 C 280.593 45.600,280.400 45.407,280.400 45.171 C 280.400 44.618,279.382 43.600,278.829 43.600 C 278.593 43.600,278.400 43.407,278.400 43.171 C 278.400 42.618,277.382 41.600,276.829 41.600 C 276.593 41.600,276.400 41.407,276.400 41.171 C 276.400 40.618,275.382 39.600,274.829 39.600 C 274.593 39.600,274.400 39.407,274.400 39.171 C 274.400 38.618,273.382 37.600,272.829 37.600 C 272.593 37.600,272.400 37.407,272.400 37.171 C 272.400 36.618,271.382 35.600,270.829 35.600 C 270.593 35.600,270.400 35.330,270.400 35.000 C 270.400 34.581,269.978 34.400,269.000 34.400 C 268.022 34.400,267.600 34.581,267.600 35.000 C 267.600 35.330,267.330 35.600,267.000 35.600 C 266.670 35.600,266.400 35.780,266.400 36.000 C 266.400 36.220,266.167 36.400,265.882 36.400 C 265.598 36.400,264.592 37.120,263.649 38.000 C 262.705 38.880,261.723 39.606,261.466 39.613 C 260.793 39.631,259.600 40.610,259.600 41.144 C 259.600 41.395,259.330 41.600,259.000 41.600 C 258.670 41.600,258.400 41.780,258.400 42.000 C 258.400 42.220,258.167 42.400,257.882 42.400 C 257.598 42.400,256.592 43.120,255.649 44.000 C 254.705 44.880,253.723 45.606,253.466 45.613 C 252.793 45.631,251.600 46.610,251.600 47.144 C 251.600 47.395,251.330 47.600,251.000 47.600 C 250.670 47.600,250.400 47.780,250.400 48.000 C 250.400 48.220,250.152 48.400,249.849 48.400 C 249.546 48.400,249.074 48.670,248.800 49.000 C 248.145 49.789,246.400 49.789,246.400 49.000 C 246.400 48.627,246.022 48.400,245.400 48.400 C 244.850 48.400,244.400 48.220,244.400 48.000 C 244.400 47.780,243.950 47.600,243.400 47.600 C 242.778 47.600,242.400 47.373,242.400 47.000 C 242.400 46.627,242.022 46.400,241.400 46.400 C 240.850 46.400,240.400 46.220,240.400 46.000 C 240.400 45.780,239.950 45.600,239.400 45.600 C 238.778 45.600,238.400 45.373,238.400 45.000 C 238.400 44.627,238.022 44.400,237.400 44.400 C 236.850 44.400,236.400 44.220,236.400 44.000 C 236.400 43.780,235.950 43.600,235.400 43.600 C 234.778 43.600,234.400 43.373,234.400 43.000 C 234.400 42.627,234.022 42.400,233.400 42.400 C 232.850 42.400,232.400 42.220,232.400 42.000 C 232.400 41.780,231.950 41.600,231.400 41.600 C 230.778 41.600,230.400 41.373,230.400 41.000 C 230.400 40.627,230.022 40.400,229.400 40.400 C 228.850 40.400,228.400 40.220,228.400 40.000 C 228.400 39.780,227.950 39.600,227.400 39.600 C 226.850 39.600,226.400 39.407,226.400 39.171 C 226.400 38.618,225.382 37.600,224.829 37.600 C 224.568 37.600,224.400 36.582,224.400 35.000 C 224.400 33.533,224.226 32.400,224.000 32.400 C 223.780 32.400,223.600 31.404,223.600 30.187 C 223.600 28.590,223.433 27.911,223.000 27.745 C 222.562 27.576,222.400 26.886,222.400 25.181 C 222.400 23.897,222.220 22.736,222.000 22.600 C 221.780 22.464,221.600 21.368,221.600 20.164 C 221.600 18.587,221.432 17.910,221.000 17.745 C 220.580 17.583,220.400 16.928,220.400 15.557 L 220.400 13.600 199.000 13.600 L 177.600 13.600 177.600 15.557 M275.745 335.000 C 275.569 335.458,274.817 335.600,272.557 335.600 C 270.852 335.600,269.600 335.769,269.600 336.000 C 269.600 336.220,269.082 336.400,268.449 336.400 C 267.816 336.400,267.074 336.670,266.800 337.000 C 266.526 337.330,265.874 337.600,265.351 337.600 C 264.828 337.600,264.400 337.780,264.400 338.000 C 264.400 338.220,264.173 338.400,263.896 338.400 C 263.619 338.400,262.907 338.850,262.313 339.400 C 261.720 339.950,260.867 340.400,260.417 340.400 C 259.957 340.400,259.600 340.662,259.600 341.000 C 259.600 341.330,259.407 341.600,259.171 341.600 C 258.618 341.600,257.600 342.618,257.600 343.171 C 257.600 343.407,257.407 343.600,257.171 343.600 C 256.618 343.600,255.600 344.618,255.600 345.171 C 255.600 345.407,255.395 345.600,255.144 345.600 C 254.590 345.600,253.630 346.803,253.613 347.519 C 253.606 347.805,253.150 348.455,252.600 348.965 C 252.050 349.475,251.600 350.257,251.600 350.703 C 251.600 351.149,251.330 351.618,251.000 351.745 C 250.649 351.879,250.400 352.479,250.400 353.187 C 250.400 353.854,250.220 354.400,250.000 354.400 C 249.780 354.400,249.600 355.101,249.600 355.957 C 249.600 356.972,249.391 357.595,249.000 357.745 C 248.491 357.940,248.400 359.347,248.400 367.000 C 248.400 374.653,248.491 376.060,249.000 376.255 C 249.391 376.405,249.600 377.028,249.600 378.043 C 249.600 378.899,249.780 379.600,250.000 379.600 C 250.220 379.600,250.400 380.146,250.400 380.813 C 250.400 381.521,250.649 382.121,251.000 382.255 C 251.330 382.382,251.600 382.736,251.600 383.043 C 251.600 383.349,251.780 383.600,252.000 383.600 C 252.220 383.600,252.400 383.935,252.400 384.344 C 252.400 384.753,252.850 385.426,253.400 385.839 C 253.950 386.252,254.400 386.833,254.400 387.129 C 254.400 387.940,256.873 390.400,257.688 390.400 C 258.080 390.400,258.400 390.670,258.400 391.000 C 258.400 391.330,258.604 391.600,258.854 391.600 C 259.104 391.600,259.725 392.050,260.235 392.600 C 260.745 393.150,261.430 393.600,261.757 393.600 C 262.085 393.600,262.464 393.780,262.600 394.000 C 262.736 394.220,263.467 394.400,264.224 394.400 C 265.180 394.400,265.600 394.583,265.600 395.000 C 265.600 395.417,266.020 395.600,266.976 395.600 C 267.733 395.600,268.464 395.780,268.600 396.000 C 268.754 396.249,272.537 396.400,278.624 396.400 C 284.875 396.400,288.400 396.256,288.400 396.000 C 288.400 395.780,289.216 395.600,290.213 395.600 C 291.455 395.600,292.098 395.411,292.255 395.000 C 292.382 394.670,292.916 394.400,293.443 394.400 C 293.969 394.400,294.400 394.220,294.400 394.000 C 294.400 393.780,294.674 393.600,295.010 393.600 C 295.536 393.600,295.605 392.706,295.510 387.100 L 295.400 380.600 293.696 380.477 C 292.442 380.386,291.930 380.518,291.754 380.977 C 291.622 381.320,291.084 381.600,290.557 381.600 C 290.031 381.600,289.600 381.780,289.600 382.000 C 289.600 382.220,288.964 382.400,288.187 382.400 C 287.301 382.400,286.689 382.623,286.545 383.000 C 286.356 383.491,285.369 383.600,281.129 383.600 C 277.052 383.600,275.814 383.472,275.343 383.000 C 275.013 382.670,274.298 382.400,273.753 382.400 C 273.209 382.400,272.314 381.950,271.764 381.400 C 271.214 380.850,270.502 380.400,270.182 380.400 C 269.862 380.400,269.600 380.220,269.600 380.000 C 269.600 379.780,269.330 379.600,269.000 379.600 C 268.670 379.600,268.400 379.330,268.400 379.000 C 268.400 378.670,268.220 378.400,268.000 378.400 C 267.780 378.400,267.600 378.121,267.600 377.781 C 267.600 377.440,267.150 376.745,266.600 376.235 C 266.050 375.725,265.600 374.924,265.600 374.454 C 265.600 373.962,265.346 373.600,265.000 373.600 C 264.547 373.600,264.400 373.111,264.400 371.600 C 264.400 370.500,264.220 369.600,264.000 369.600 C 263.763 369.600,263.600 368.133,263.600 366.000 C 263.600 363.867,263.763 362.400,264.000 362.400 C 264.220 362.400,264.400 361.789,264.400 361.043 C 264.400 360.205,264.630 359.597,265.000 359.455 C 265.365 359.315,265.600 358.710,265.600 357.907 C 265.600 356.969,265.888 356.374,266.600 355.839 C 267.150 355.426,267.600 354.753,267.600 354.344 C 267.600 353.935,267.780 353.600,268.000 353.600 C 268.220 353.600,268.400 353.330,268.400 353.000 C 268.400 352.670,268.670 352.400,269.000 352.400 C 269.330 352.400,269.600 352.220,269.600 352.000 C 269.600 351.780,269.935 351.600,270.344 351.600 C 270.753 351.600,271.426 351.150,271.839 350.600 C 272.374 349.888,272.969 349.600,273.907 349.600 C 274.710 349.600,275.315 349.365,275.455 349.000 C 275.617 348.580,276.272 348.400,277.643 348.400 C 278.719 348.400,279.600 348.220,279.600 348.000 C 279.600 347.780,280.219 347.600,280.976 347.600 C 281.733 347.600,282.464 347.780,282.600 348.000 C 282.736 348.220,284.077 348.400,285.581 348.400 C 287.642 348.400,288.371 348.548,288.545 349.000 C 288.671 349.330,289.130 349.600,289.564 349.600 C 289.998 349.600,290.464 349.780,290.600 350.000 C 290.736 350.220,291.202 350.400,291.636 350.400 C 292.070 350.400,292.529 350.670,292.655 351.000 C 292.797 351.370,293.405 351.600,294.243 351.600 L 295.600 351.600 295.600 344.243 C 295.600 336.124,295.693 336.400,292.967 336.400 C 292.215 336.400,291.600 336.220,291.600 336.000 C 291.600 335.771,290.390 335.600,288.771 335.600 C 286.790 335.600,285.763 335.420,285.343 335.000 C 284.883 334.540,283.722 334.400,280.359 334.400 C 276.831 334.400,275.930 334.517,275.745 335.000 M374.545 335.000 C 374.369 335.458,373.617 335.600,371.357 335.600 C 369.652 335.600,368.400 335.769,368.400 336.000 C 368.400 336.220,367.770 336.400,367.000 336.400 C 366.022 336.400,365.600 336.581,365.600 337.000 C 365.600 337.373,365.222 337.600,364.600 337.600 C 364.050 337.600,363.600 337.780,363.600 338.000 C 363.600 338.220,363.234 338.400,362.787 338.400 C 362.341 338.400,361.871 338.670,361.745 339.000 C 361.618 339.330,361.341 339.600,361.129 339.600 C 360.610 339.600,359.600 340.638,359.600 341.171 C 359.600 341.407,359.407 341.600,359.171 341.600 C 358.638 341.600,357.600 342.610,357.600 343.129 C 357.600 343.341,357.330 343.618,357.000 343.745 C 356.670 343.871,356.400 344.341,356.400 344.787 C 356.400 345.234,356.220 345.600,356.000 345.600 C 355.780 345.600,355.600 346.481,355.600 347.557 C 355.600 348.928,355.420 349.583,355.000 349.745 C 354.540 349.921,354.400 350.680,354.400 353.000 C 354.400 355.320,354.540 356.079,355.000 356.255 C 355.420 356.417,355.600 357.072,355.600 358.443 C 355.600 359.519,355.780 360.400,356.000 360.400 C 356.220 360.400,356.400 360.766,356.400 361.213 C 356.400 361.659,356.670 362.129,357.000 362.255 C 357.330 362.382,357.600 362.659,357.600 362.871 C 357.600 363.390,358.638 364.400,359.171 364.400 C 359.407 364.400,359.600 364.593,359.600 364.829 C 359.600 365.382,360.618 366.400,361.171 366.400 C 361.407 366.400,361.600 366.605,361.600 366.856 C 361.600 367.475,362.838 368.372,363.713 368.387 C 364.104 368.394,364.529 368.670,364.655 369.000 C 364.782 369.330,365.216 369.600,365.619 369.600 C 366.023 369.600,366.464 369.780,366.600 370.000 C 366.736 370.220,367.202 370.400,367.636 370.400 C 368.070 370.400,368.529 370.670,368.655 371.000 C 368.797 371.370,369.405 371.600,370.243 371.600 C 370.989 371.600,371.600 371.780,371.600 372.000 C 371.600 372.220,372.031 372.400,372.557 372.400 C 373.084 372.400,373.618 372.670,373.745 373.000 C 373.871 373.330,374.341 373.600,374.787 373.600 C 375.234 373.600,375.600 373.780,375.600 374.000 C 375.600 374.220,376.050 374.400,376.600 374.400 C 377.150 374.400,377.600 374.593,377.600 374.829 C 377.600 375.382,378.618 376.400,379.171 376.400 C 379.407 376.400,379.600 376.655,379.600 376.967 C 379.600 377.278,379.805 377.602,380.055 377.685 C 381.730 378.243,379.469 383.600,377.557 383.600 C 377.167 383.600,376.736 383.780,376.600 384.000 C 376.457 384.232,374.263 384.400,371.376 384.400 C 368.325 384.400,366.400 384.245,366.400 384.000 C 366.400 383.780,365.789 383.600,365.043 383.600 C 364.205 383.600,363.597 383.370,363.455 383.000 C 363.329 382.670,362.859 382.400,362.413 382.400 C 361.966 382.400,361.600 382.220,361.600 382.000 C 361.600 381.780,361.247 381.600,360.816 381.600 C 360.385 381.600,359.288 380.871,358.379 379.979 C 355.869 377.519,355.814 377.653,355.692 386.533 L 355.583 394.400 356.949 394.400 C 357.794 394.400,358.402 394.629,358.545 395.000 C 358.702 395.411,359.345 395.600,360.587 395.600 C 361.584 395.600,362.400 395.780,362.400 396.000 C 362.400 396.256,366.000 396.400,372.400 396.400 C 378.800 396.400,382.400 396.256,382.400 396.000 C 382.400 395.780,383.120 395.600,384.000 395.600 C 385.156 395.600,385.600 395.433,385.600 395.000 C 385.600 394.581,386.022 394.400,387.000 394.400 C 387.770 394.400,388.400 394.220,388.400 394.000 C 388.400 393.780,388.670 393.600,389.000 393.600 C 389.330 393.600,389.600 393.330,389.600 393.000 C 389.600 392.670,389.915 392.394,390.300 392.387 C 391.138 392.372,392.400 391.477,392.400 390.899 C 392.400 390.671,392.670 390.382,393.000 390.255 C 393.330 390.129,393.600 389.702,393.600 389.307 C 393.600 388.913,394.050 388.252,394.600 387.839 C 395.319 387.299,395.600 386.711,395.600 385.744 C 395.600 385.005,395.780 384.400,396.000 384.400 C 396.248 384.400,396.400 382.208,396.400 378.624 C 396.400 375.204,396.237 372.746,396.000 372.600 C 395.780 372.464,395.600 371.998,395.600 371.564 C 395.600 371.130,395.330 370.671,395.000 370.545 C 394.670 370.418,394.394 370.019,394.387 369.657 C 394.371 368.828,393.457 367.600,392.856 367.600 C 392.605 367.600,392.400 367.407,392.400 367.171 C 392.400 366.618,391.382 365.600,390.829 365.600 C 390.593 365.600,390.400 365.395,390.400 365.144 C 390.400 364.543,389.172 363.629,388.343 363.613 C 387.981 363.606,387.582 363.330,387.455 363.000 C 387.329 362.670,386.859 362.400,386.413 362.400 C 385.966 362.400,385.600 362.220,385.600 362.000 C 385.600 361.780,385.169 361.600,384.643 361.600 C 384.116 361.600,383.582 361.330,383.455 361.000 C 383.329 360.670,382.870 360.400,382.436 360.400 C 382.002 360.400,381.536 360.220,381.400 360.000 C 381.264 359.780,380.803 359.600,380.376 359.600 C 379.949 359.600,379.600 359.455,379.600 359.277 C 379.600 358.923,376.812 357.600,376.066 357.600 C 375.810 357.600,375.600 357.423,375.600 357.208 C 375.600 356.992,375.150 356.702,374.600 356.564 C 374.050 356.426,373.600 356.153,373.600 355.957 C 373.600 355.760,373.330 355.600,373.000 355.600 C 372.670 355.600,372.400 355.407,372.400 355.171 C 372.400 354.618,371.382 353.600,370.829 353.600 C 370.593 353.600,370.400 352.880,370.400 352.000 C 370.400 351.120,370.593 350.400,370.829 350.400 C 371.382 350.400,372.400 349.382,372.400 348.829 C 372.400 348.593,372.850 348.400,373.400 348.400 C 373.950 348.400,374.400 348.220,374.400 348.000 C 374.400 347.780,375.300 347.600,376.400 347.600 C 377.911 347.600,378.400 347.453,378.400 347.000 C 378.400 346.634,378.773 346.400,379.357 346.400 C 379.884 346.400,380.418 346.670,380.545 347.000 C 380.714 347.442,381.412 347.600,383.187 347.600 C 384.529 347.600,385.600 347.778,385.600 348.000 C 385.600 348.220,386.236 348.400,387.013 348.400 C 387.899 348.400,388.511 348.623,388.655 349.000 C 388.782 349.330,389.216 349.600,389.619 349.600 C 390.023 349.600,390.464 349.780,390.600 350.000 C 390.736 350.220,391.647 350.400,392.624 350.400 L 394.400 350.400 394.400 344.205 C 394.400 337.189,394.128 336.400,391.711 336.400 C 390.990 336.400,390.400 336.220,390.400 336.000 C 390.400 335.765,389.014 335.600,387.043 335.600 C 384.428 335.600,383.635 335.467,383.455 335.000 C 383.271 334.519,382.387 334.400,379.000 334.400 C 375.613 334.400,374.729 334.519,374.545 335.000 M128.584 336.100 C 128.479 336.375,128.440 349.830,128.497 366.000 L 128.600 395.400 136.100 395.509 L 143.600 395.618 143.600 384.009 L 143.600 372.400 155.000 372.400 L 166.400 372.400 166.400 384.000 L 166.400 395.600 173.400 395.600 L 180.400 395.600 180.400 365.600 L 180.400 335.600 173.400 335.600 L 166.400 335.600 166.400 347.600 L 166.400 359.600 155.000 359.600 L 143.600 359.600 143.600 347.600 L 143.600 335.600 136.187 335.600 C 130.626 335.600,128.727 335.725,128.584 336.100 M207.600 336.550 C 207.600 337.080,207.330 337.618,207.000 337.745 C 206.653 337.878,206.400 338.476,206.400 339.164 C 206.400 339.818,206.220 340.464,206.000 340.600 C 205.780 340.736,205.600 341.467,205.600 342.224 C 205.600 343.180,205.417 343.600,205.000 343.600 C 204.581 343.600,204.400 344.022,204.400 345.000 C 204.400 345.770,204.220 346.400,204.000 346.400 C 203.780 346.400,203.600 346.828,203.600 347.351 C 203.600 347.874,203.330 348.526,203.000 348.800 C 202.670 349.074,202.400 349.816,202.400 350.449 C 202.400 351.082,202.220 351.600,202.000 351.600 C 201.780 351.600,201.600 352.211,201.600 352.957 C 201.600 353.795,201.370 354.403,201.000 354.545 C 200.623 354.689,200.400 355.301,200.400 356.187 C 200.400 356.964,200.220 357.600,200.000 357.600 C 199.780 357.600,199.600 358.031,199.600 358.557 C 199.600 359.084,199.330 359.618,199.000 359.745 C 198.653 359.878,198.400 360.476,198.400 361.164 C 198.400 361.818,198.220 362.464,198.000 362.600 C 197.780 362.736,197.600 363.467,197.600 364.224 C 197.600 365.180,197.417 365.600,197.000 365.600 C 196.581 365.600,196.400 366.022,196.400 367.000 C 196.400 367.770,196.220 368.400,196.000 368.400 C 195.780 368.400,195.600 368.828,195.600 369.351 C 195.600 369.874,195.330 370.526,195.000 370.800 C 194.670 371.074,194.400 371.816,194.400 372.449 C 194.400 373.082,194.220 373.600,194.000 373.600 C 193.780 373.600,193.600 374.211,193.600 374.957 C 193.600 375.795,193.370 376.403,193.000 376.545 C 192.623 376.689,192.400 377.301,192.400 378.187 C 192.400 378.964,192.220 379.600,192.000 379.600 C 191.780 379.600,191.600 380.031,191.600 380.557 C 191.600 381.084,191.330 381.618,191.000 381.745 C 190.653 381.878,190.400 382.476,190.400 383.164 C 190.400 383.818,190.220 384.464,190.000 384.600 C 189.780 384.736,189.600 385.467,189.600 386.224 C 189.600 387.180,189.417 387.600,189.000 387.600 C 188.581 387.600,188.400 388.022,188.400 389.000 C 188.400 389.770,188.220 390.400,188.000 390.400 C 187.780 390.400,187.600 390.828,187.600 391.351 C 187.600 391.874,187.321 392.534,186.980 392.817 C 186.635 393.103,186.413 393.790,186.480 394.366 L 186.600 395.400 194.500 395.508 C 201.094 395.599,202.400 395.523,202.400 395.051 C 202.400 394.740,202.670 394.382,203.000 394.255 C 203.347 394.122,203.600 393.524,203.600 392.836 C 203.600 392.182,203.780 391.536,204.000 391.400 C 204.220 391.264,204.400 390.553,204.400 389.819 C 204.400 389.003,204.633 388.396,205.000 388.255 C 205.411 388.098,205.600 387.455,205.600 386.213 C 205.600 385.216,205.780 384.400,206.000 384.400 C 206.220 384.400,206.400 383.950,206.400 383.400 L 206.400 382.400 216.000 382.400 L 225.600 382.400 225.600 383.400 C 225.600 383.950,225.780 384.400,226.000 384.400 C 226.220 384.400,226.400 384.927,226.400 385.571 C 226.400 386.216,226.670 387.013,227.000 387.343 C 227.330 387.673,227.600 388.496,227.600 389.171 C 227.600 389.847,227.780 390.400,228.000 390.400 C 228.220 390.400,228.400 391.036,228.400 391.813 C 228.400 392.699,228.623 393.311,229.000 393.455 C 229.330 393.582,229.600 394.116,229.600 394.643 L 229.600 395.600 237.600 395.600 L 245.600 395.600 245.600 393.787 C 245.600 392.545,245.411 391.902,245.000 391.745 C 244.670 391.618,244.400 391.084,244.400 390.557 C 244.400 390.031,244.220 389.600,244.000 389.600 C 243.780 389.600,243.600 388.964,243.600 388.187 C 243.600 387.301,243.377 386.689,243.000 386.545 C 242.630 386.403,242.400 385.795,242.400 384.957 C 242.400 384.211,242.220 383.600,242.000 383.600 C 241.780 383.600,241.600 382.989,241.600 382.243 C 241.600 381.405,241.370 380.797,241.000 380.655 C 240.623 380.511,240.400 379.899,240.400 379.013 C 240.400 378.236,240.220 377.600,240.000 377.600 C 239.780 377.600,239.600 377.150,239.600 376.600 C 239.600 375.978,239.373 375.600,239.000 375.600 C 238.567 375.600,238.400 375.156,238.400 374.000 C 238.400 373.120,238.220 372.400,238.000 372.400 C 237.780 372.400,237.600 371.770,237.600 371.000 C 237.600 370.022,237.419 369.600,237.000 369.600 C 236.583 369.600,236.400 369.180,236.400 368.224 C 236.400 367.467,236.220 366.736,236.000 366.600 C 235.780 366.464,235.600 365.818,235.600 365.164 C 235.600 364.476,235.347 363.878,235.000 363.745 C 234.633 363.604,234.400 362.997,234.400 362.181 C 234.400 361.447,234.220 360.736,234.000 360.600 C 233.780 360.464,233.600 359.998,233.600 359.564 C 233.600 359.130,233.330 358.671,233.000 358.545 C 232.630 358.403,232.400 357.795,232.400 356.957 C 232.400 356.211,232.220 355.600,232.000 355.600 C 231.780 355.600,231.600 354.989,231.600 354.243 C 231.600 353.405,231.370 352.797,231.000 352.655 C 230.623 352.511,230.400 351.899,230.400 351.013 C 230.400 350.236,230.220 349.600,230.000 349.600 C 229.780 349.600,229.600 348.989,229.600 348.243 C 229.600 347.405,229.370 346.797,229.000 346.655 C 228.670 346.529,228.400 345.969,228.400 345.413 C 228.400 344.856,228.220 344.400,228.000 344.400 C 227.780 344.400,227.600 343.770,227.600 343.000 C 227.600 342.022,227.419 341.600,227.000 341.600 C 226.567 341.600,226.400 341.156,226.400 340.000 C 226.400 339.120,226.231 338.400,226.025 338.400 C 225.819 338.400,225.594 337.815,225.525 337.100 L 225.400 335.800 216.500 335.692 L 207.600 335.585 207.600 336.550 M302.584 336.100 C 302.479 336.375,302.440 349.830,302.497 366.000 L 302.600 395.400 310.100 395.509 L 317.600 395.618 317.613 383.309 C 317.623 372.988,317.711 371.113,318.157 371.700 C 318.449 372.085,318.893 372.400,319.144 372.400 C 319.395 372.400,319.600 372.784,319.600 373.254 C 319.600 373.724,320.050 374.525,320.600 375.035 C 321.150 375.545,321.606 376.195,321.613 376.481 C 321.630 377.197,322.590 378.400,323.144 378.400 C 323.395 378.400,323.600 378.670,323.600 379.000 C 323.600 379.330,323.780 379.600,324.000 379.600 C 324.220 379.600,324.400 379.935,324.400 380.344 C 324.400 380.753,324.850 381.426,325.400 381.839 C 325.951 382.253,326.400 382.996,326.400 383.495 C 326.400 384.033,326.643 384.400,327.000 384.400 C 327.330 384.400,327.600 384.670,327.600 385.000 C 327.600 385.330,327.780 385.600,328.000 385.600 C 328.220 385.600,328.400 385.935,328.400 386.344 C 328.400 386.753,328.850 387.426,329.400 387.839 C 329.951 388.253,330.400 388.996,330.400 389.495 C 330.400 390.033,330.643 390.400,331.000 390.400 C 331.330 390.400,331.600 390.670,331.600 391.000 C 331.600 391.330,331.780 391.600,332.000 391.600 C 332.220 391.600,332.400 391.935,332.400 392.344 C 332.400 392.753,332.850 393.426,333.400 393.839 C 333.950 394.252,334.400 394.817,334.400 395.095 C 334.400 395.487,336.419 395.600,343.400 395.600 L 352.400 395.600 352.387 394.300 C 352.374 392.928,351.621 391.600,350.856 391.600 C 350.605 391.600,350.400 391.216,350.400 390.747 C 350.400 390.278,349.770 389.300,349.000 388.574 C 348.230 387.848,347.600 386.966,347.600 386.614 C 347.600 386.263,347.330 385.871,347.000 385.745 C 346.670 385.618,346.400 385.341,346.400 385.129 C 346.400 384.610,345.362 383.600,344.829 383.600 C 344.593 383.600,344.400 383.216,344.400 382.746 C 344.400 382.276,343.950 381.475,343.400 380.965 C 342.850 380.455,342.394 379.805,342.387 379.519 C 342.370 378.803,341.410 377.600,340.856 377.600 C 340.605 377.600,340.400 377.330,340.400 377.000 C 340.400 376.670,340.220 376.400,340.000 376.400 C 339.780 376.400,339.600 376.130,339.600 375.800 C 339.600 375.470,338.880 374.480,338.000 373.600 C 337.120 372.720,336.400 371.717,336.400 371.371 C 336.400 370.653,335.466 369.600,334.829 369.600 C 334.593 369.600,334.400 369.216,334.400 368.747 C 334.400 368.278,333.770 367.300,333.000 366.574 C 331.689 365.337,331.104 363.600,332.000 363.600 C 332.220 363.600,332.400 363.330,332.400 363.000 C 332.400 362.670,332.605 362.400,332.856 362.400 C 333.471 362.400,334.372 361.165,334.387 360.300 C 334.394 359.915,334.670 359.600,335.000 359.600 C 335.330 359.600,335.600 359.373,335.600 359.095 C 335.600 358.817,336.050 358.252,336.600 357.839 C 337.150 357.426,337.600 356.753,337.600 356.344 C 337.600 355.935,337.780 355.600,338.000 355.600 C 338.220 355.600,338.400 355.349,338.400 355.043 C 338.400 354.736,338.670 354.382,339.000 354.255 C 339.330 354.129,339.600 353.737,339.600 353.384 C 339.600 352.655,340.529 351.600,341.171 351.600 C 341.407 351.600,341.600 351.330,341.600 351.000 C 341.600 350.670,341.780 350.400,342.000 350.400 C 342.220 350.400,342.400 349.950,342.400 349.400 C 342.400 348.850,342.593 348.400,342.829 348.400 C 343.362 348.400,344.400 347.390,344.400 346.871 C 344.400 346.659,344.670 346.382,345.000 346.255 C 345.330 346.129,345.600 345.737,345.600 345.384 C 345.600 344.655,346.529 343.600,347.171 343.600 C 347.407 343.600,347.600 343.330,347.600 343.000 C 347.600 342.670,347.780 342.400,348.000 342.400 C 348.220 342.400,348.400 341.950,348.400 341.400 C 348.400 340.850,348.605 340.400,348.856 340.400 C 349.423 340.400,350.370 339.190,350.387 338.444 C 350.394 338.138,350.699 337.669,351.065 337.402 C 353.105 335.910,351.615 335.600,342.413 335.600 L 333.600 335.600 333.600 336.600 C 333.600 337.150,333.407 337.600,333.171 337.600 C 332.527 337.600,331.600 338.656,331.600 339.391 C 331.600 339.747,331.150 340.455,330.600 340.965 C 330.050 341.475,329.600 342.276,329.600 342.746 C 329.600 343.216,329.395 343.600,329.144 343.600 C 328.590 343.600,327.630 344.803,327.613 345.519 C 327.606 345.805,327.150 346.455,326.600 346.965 C 326.050 347.475,325.600 348.276,325.600 348.746 C 325.600 349.216,325.395 349.600,325.144 349.600 C 324.590 349.600,323.630 350.803,323.613 351.519 C 323.606 351.805,323.150 352.455,322.600 352.965 C 322.050 353.475,321.600 354.276,321.600 354.746 C 321.600 355.216,321.395 355.600,321.144 355.600 C 320.597 355.600,319.631 356.800,319.613 357.500 C 319.600 357.984,318.205 359.600,317.800 359.600 C 317.690 359.600,317.600 354.200,317.600 347.600 L 317.600 335.600 310.187 335.600 C 304.626 335.600,302.727 335.725,302.584 336.100 M216.400 353.571 C 216.400 354.216,216.670 355.013,217.000 355.343 C 217.330 355.673,217.600 356.496,217.600 357.171 C 217.600 357.847,217.780 358.400,218.000 358.400 C 218.220 358.400,218.400 359.036,218.400 359.813 C 218.400 360.699,218.623 361.311,219.000 361.455 C 219.370 361.597,219.600 362.205,219.600 363.043 C 219.600 363.789,219.780 364.400,220.000 364.400 C 220.220 364.400,220.400 365.036,220.400 365.813 C 220.400 366.699,220.623 367.311,221.000 367.455 C 221.370 367.597,221.600 368.205,221.600 369.043 C 221.600 369.789,221.780 370.400,222.000 370.400 C 222.220 370.400,222.400 370.670,222.400 371.000 C 222.400 371.507,221.455 371.600,216.300 371.600 L 210.200 371.600 210.339 369.600 C 210.435 368.216,210.650 367.600,211.039 367.600 C 211.427 367.600,211.600 367.107,211.600 366.000 C 211.600 365.120,211.780 364.400,212.000 364.400 C 212.220 364.400,212.400 363.770,212.400 363.000 C 212.400 362.022,212.581 361.600,213.000 361.600 C 213.433 361.600,213.600 361.156,213.600 360.000 C 213.600 359.120,213.780 358.400,214.000 358.400 C 214.220 358.400,214.400 357.789,214.400 357.043 C 214.400 356.205,214.630 355.597,215.000 355.455 C 215.377 355.311,215.600 354.699,215.600 353.813 C 215.600 353.036,215.780 352.400,216.000 352.400 C 216.220 352.400,216.400 352.927,216.400 353.571 " stroke="none" fill="#044c9c" fill-rule="evenodd"></path><path id="path1" d="M165.600 114.000 C 165.600 114.220,165.150 114.400,164.600 114.400 C 163.978 114.400,163.600 114.627,163.600 115.000 C 163.600 115.340,163.242 115.600,162.774 115.600 C 162.307 115.600,161.002 116.546,159.774 117.774 C 158.546 119.002,157.600 120.307,157.600 120.774 C 157.600 121.242,157.340 121.600,157.000 121.600 C 156.627 121.600,156.400 121.978,156.400 122.600 C 156.400 123.150,156.220 123.600,156.000 123.600 C 155.753 123.600,155.600 125.667,155.600 129.000 C 155.600 132.333,155.753 134.400,156.000 134.400 C 156.220 134.400,156.400 134.850,156.400 135.400 C 156.400 136.022,156.627 136.400,157.000 136.400 C 157.373 136.400,157.600 136.778,157.600 137.400 C 157.600 137.950,157.780 138.400,158.000 138.400 C 158.220 138.400,158.400 138.670,158.400 139.000 C 158.400 139.330,158.593 139.600,158.829 139.600 C 159.382 139.600,160.400 140.618,160.400 141.171 C 160.400 141.407,160.593 141.600,160.829 141.600 C 162.337 141.600,162.692 143.191,161.400 144.161 C 160.850 144.574,160.400 145.236,160.400 145.632 C 160.400 146.029,160.220 146.464,160.000 146.600 C 159.780 146.736,159.600 147.177,159.600 147.581 C 159.600 147.984,159.330 148.418,159.000 148.545 C 158.670 148.671,158.400 149.130,158.400 149.564 C 158.400 149.998,158.220 150.464,158.000 150.600 C 157.780 150.736,157.600 151.177,157.600 151.581 C 157.600 151.984,157.330 152.418,157.000 152.545 C 156.670 152.671,156.400 153.141,156.400 153.587 C 156.400 154.034,156.220 154.400,156.000 154.400 C 155.774 154.400,155.600 155.533,155.600 157.000 C 155.600 158.467,155.774 159.600,156.000 159.600 C 156.220 159.600,156.400 159.920,156.400 160.311 C 156.400 161.787,157.810 162.400,161.205 162.400 C 163.068 162.400,164.400 162.233,164.400 162.000 C 164.400 161.780,164.670 161.600,165.000 161.600 C 165.330 161.600,165.600 161.330,165.600 161.000 C 165.600 160.670,165.780 160.400,166.000 160.400 C 166.220 160.400,166.400 159.950,166.400 159.400 C 166.400 158.850,166.593 158.400,166.829 158.400 C 167.521 158.400,168.400 157.321,168.400 156.471 C 168.400 156.039,168.670 155.582,169.000 155.455 C 169.330 155.329,169.600 154.859,169.600 154.413 C 169.600 153.966,169.780 153.600,170.000 153.600 C 170.220 153.600,170.400 153.169,170.400 152.643 C 170.400 152.116,170.670 151.582,171.000 151.455 C 171.330 151.329,171.600 150.859,171.600 150.413 C 171.600 149.966,171.780 149.600,172.000 149.600 C 172.220 149.600,172.400 149.150,172.400 148.600 C 172.400 147.978,172.627 147.600,173.000 147.600 C 173.373 147.600,173.600 147.222,173.600 146.600 C 173.600 146.050,173.780 145.600,174.000 145.600 C 174.220 145.600,174.400 145.330,174.400 145.000 C 174.400 144.528,174.956 144.400,177.000 144.400 L 179.600 144.400 179.600 198.400 L 179.600 252.400 172.600 252.400 L 165.600 252.400 165.600 258.400 L 165.600 264.400 198.600 264.400 L 231.600 264.400 231.600 258.400 L 231.600 252.400 223.600 252.400 L 215.600 252.400 215.600 207.400 L 215.600 162.400 222.600 162.400 C 227.000 162.400,229.600 162.251,229.600 162.000 C 229.600 161.780,230.050 161.600,230.600 161.600 C 231.222 161.600,231.600 161.373,231.600 161.000 C 231.600 160.660,231.959 160.400,232.429 160.400 C 233.314 160.400,234.400 159.534,234.400 158.829 C 234.400 158.593,234.593 158.400,234.829 158.400 C 235.382 158.400,236.400 157.382,236.400 156.829 C 236.400 156.593,236.593 156.400,236.829 156.400 C 237.521 156.400,238.400 155.321,238.400 154.471 C 238.400 154.039,238.670 153.582,239.000 153.455 C 239.377 153.311,239.600 152.699,239.600 151.813 C 239.600 151.036,239.780 150.400,240.000 150.400 C 240.260 150.400,240.400 144.467,240.400 133.400 C 240.400 122.333,240.260 116.400,240.000 116.400 C 239.780 116.400,239.600 116.080,239.600 115.689 C 239.600 113.288,232.944 112.594,230.769 114.769 L 229.600 115.938 229.600 130.726 C 229.600 143.502,229.518 145.546,229.000 145.745 C 228.653 145.878,228.400 146.476,228.400 147.164 C 228.400 147.818,228.220 148.464,228.000 148.600 C 227.780 148.736,227.600 149.107,227.600 149.424 C 227.600 150.405,226.063 151.600,224.800 151.600 C 224.140 151.600,223.600 151.780,223.600 152.000 C 223.600 152.220,223.150 152.400,222.600 152.400 C 222.050 152.400,221.600 152.220,221.600 152.000 C 221.600 151.780,221.169 151.600,220.643 151.600 C 220.116 151.600,219.582 151.330,219.455 151.000 C 219.329 150.670,218.859 150.400,218.413 150.400 C 217.862 150.400,217.600 150.138,217.600 149.587 C 217.600 149.141,217.330 148.671,217.000 148.545 C 216.630 148.403,216.400 147.795,216.400 146.957 C 216.400 146.211,216.220 145.600,216.000 145.600 C 215.740 145.600,215.600 140.333,215.600 130.600 C 215.600 117.533,215.523 115.600,215.000 115.600 C 214.670 115.600,214.400 115.407,214.400 115.171 C 214.400 114.038,213.200 113.600,210.129 113.613 C 206.769 113.626,205.600 114.114,205.600 115.501 C 205.600 115.949,205.330 116.418,205.000 116.545 C 204.623 116.689,204.400 117.301,204.400 118.187 C 204.400 118.964,204.220 119.600,204.000 119.600 C 203.735 119.600,203.600 142.000,203.600 186.000 L 203.600 252.400 198.000 252.400 L 192.400 252.400 192.400 186.000 C 192.400 142.000,192.265 119.600,192.000 119.600 C 191.780 119.600,191.600 118.700,191.600 117.600 C 191.600 116.089,191.453 115.600,191.000 115.600 C 190.670 115.600,190.400 115.407,190.400 115.171 C 190.400 113.704,189.540 113.600,177.429 113.600 C 169.810 113.600,165.600 113.742,165.600 114.000 M179.600 129.000 L 179.600 134.400 175.000 134.400 C 172.200 134.400,170.400 134.243,170.400 134.000 C 170.400 133.780,169.950 133.600,169.400 133.600 C 168.778 133.600,168.400 133.373,168.400 133.000 C 168.400 132.670,168.220 132.400,168.000 132.400 C 167.780 132.400,167.600 131.770,167.600 131.000 C 167.600 130.022,167.419 129.600,167.000 129.600 C 166.670 129.600,166.400 129.330,166.400 129.000 C 166.400 128.670,166.670 128.400,167.000 128.400 C 167.419 128.400,167.600 127.978,167.600 127.000 C 167.600 126.230,167.780 125.600,168.000 125.600 C 168.220 125.600,168.400 125.330,168.400 125.000 C 168.400 124.567,168.844 124.400,170.000 124.400 C 170.880 124.400,171.600 124.220,171.600 124.000 C 171.600 123.760,173.200 123.600,175.600 123.600 L 179.600 123.600 179.600 129.000 M165.600 278.400 L 165.600 284.400 198.600 284.400 L 231.600 284.400 231.600 278.400 L 231.600 272.400 198.600 272.400 L 165.600 272.400 165.600 278.400 M186.400 293.982 C 186.400 294.193,185.095 294.418,183.500 294.482 L 180.600 294.600 180.489 300.500 L 180.379 306.400 197.989 306.400 L 215.600 306.400 215.600 300.400 L 215.600 294.400 212.600 294.400 C 210.867 294.400,209.600 294.231,209.600 294.000 C 209.600 293.743,205.467 293.600,198.000 293.600 C 190.888 293.600,186.400 293.748,186.400 293.982 M8.400 338.000 C 8.400 338.220,8.080 338.400,7.689 338.400 C 6.671 338.400,5.600 339.815,5.600 341.162 C 5.600 341.817,5.341 342.414,5.000 342.545 C 4.476 342.746,4.400 345.790,4.400 366.587 C 4.400 387.487,4.473 390.400,5.000 390.400 C 5.421 390.400,5.600 390.825,5.600 391.829 C 5.600 393.417,6.337 394.400,7.529 394.400 C 7.961 394.400,8.418 394.670,8.545 395.000 C 8.724 395.468,9.523 395.600,12.187 395.600 C 14.954 395.600,15.600 395.486,15.600 395.000 C 15.600 394.627,15.978 394.400,16.600 394.400 C 17.400 394.400,17.600 394.200,17.600 393.400 C 17.600 392.850,17.780 392.400,18.000 392.400 C 18.255 392.400,18.400 389.133,18.400 383.400 L 18.400 374.400 22.400 374.400 L 26.400 374.400 26.400 375.400 C 26.400 376.022,26.627 376.400,27.000 376.400 C 27.373 376.400,27.600 376.778,27.600 377.400 C 27.600 377.950,27.780 378.400,28.000 378.400 C 28.220 378.400,28.400 378.850,28.400 379.400 C 28.400 380.022,28.627 380.400,29.000 380.400 C 29.373 380.400,29.600 380.778,29.600 381.400 C 29.600 381.950,29.780 382.400,30.000 382.400 C 30.220 382.400,30.400 382.850,30.400 383.400 C 30.400 384.022,30.627 384.400,31.000 384.400 C 31.346 384.400,31.600 384.762,31.600 385.254 C 31.600 385.724,32.050 386.525,32.600 387.035 C 33.150 387.545,33.600 388.330,33.600 388.781 C 33.600 389.231,33.780 389.600,34.000 389.600 C 34.220 389.600,34.400 389.966,34.400 390.413 C 34.400 390.859,34.670 391.329,35.000 391.455 C 35.330 391.582,35.600 392.039,35.600 392.471 C 35.600 393.321,36.479 394.400,37.171 394.400 C 37.407 394.400,37.600 394.670,37.600 395.000 C 37.600 395.493,38.311 395.600,41.600 395.600 C 44.178 395.600,45.600 395.448,45.600 395.171 C 45.600 394.618,46.618 393.600,47.171 393.600 C 47.407 393.600,47.600 393.330,47.600 393.000 C 47.600 392.670,47.780 392.400,48.000 392.400 C 48.235 392.400,48.400 391.000,48.400 389.000 C 48.400 387.000,48.235 385.600,48.000 385.600 C 47.780 385.600,47.600 385.150,47.600 384.600 C 47.600 383.978,47.373 383.600,47.000 383.600 C 46.670 383.600,46.400 383.330,46.400 383.000 C 46.400 382.670,46.220 382.400,46.000 382.400 C 45.780 382.400,45.600 382.034,45.600 381.587 C 45.600 381.141,45.330 380.671,45.000 380.545 C 44.670 380.418,44.400 379.884,44.400 379.357 C 44.400 378.831,44.220 378.400,44.000 378.400 C 43.780 378.400,43.600 378.065,43.600 377.656 C 43.600 377.247,43.150 376.574,42.600 376.161 C 42.049 375.747,41.600 375.004,41.600 374.505 C 41.600 373.967,41.357 373.600,41.000 373.600 C 40.008 373.600,40.322 372.107,41.587 370.814 C 42.239 370.146,42.959 369.600,43.187 369.600 C 43.414 369.600,43.600 369.407,43.600 369.171 C 43.600 368.618,44.618 367.600,45.171 367.600 C 45.407 367.600,45.600 367.330,45.600 367.000 C 45.600 366.670,45.780 366.400,46.000 366.400 C 46.220 366.400,46.400 365.950,46.400 365.400 C 46.400 364.778,46.627 364.400,47.000 364.400 C 47.373 364.400,47.600 364.022,47.600 363.400 C 47.600 362.850,47.780 362.400,48.000 362.400 C 48.250 362.400,48.400 360.000,48.400 356.000 C 48.400 352.000,48.250 349.600,48.000 349.600 C 47.780 349.600,47.600 349.150,47.600 348.600 C 47.600 347.978,47.373 347.600,47.000 347.600 C 46.627 347.600,46.400 347.222,46.400 346.600 C 46.400 346.050,46.220 345.600,46.000 345.600 C 45.780 345.600,45.600 345.330,45.600 345.000 C 45.600 344.670,45.407 344.400,45.171 344.400 C 44.618 344.400,43.600 343.382,43.600 342.829 C 43.600 342.593,43.373 342.400,43.095 342.400 C 42.817 342.400,42.252 341.950,41.839 341.400 C 41.426 340.850,40.753 340.400,40.344 340.400 C 39.935 340.400,39.600 340.220,39.600 340.000 C 39.600 339.780,39.169 339.600,38.643 339.600 C 38.116 339.600,37.582 339.330,37.455 339.000 C 37.298 338.589,36.655 338.400,35.413 338.400 C 34.416 338.400,33.600 338.220,33.600 338.000 C 33.600 337.742,29.133 337.600,21.000 337.600 C 12.867 337.600,8.400 337.742,8.400 338.000 M58.100 339.383 L 56.400 341.116 56.400 361.758 C 56.400 379.840,56.474 382.400,57.000 382.400 C 57.373 382.400,57.600 382.778,57.600 383.400 C 57.600 383.950,57.780 384.400,58.000 384.400 C 58.220 384.400,58.400 385.005,58.400 385.744 C 58.400 386.711,58.681 387.299,59.400 387.839 C 59.950 388.252,60.400 388.817,60.400 389.095 C 60.400 389.373,60.593 389.600,60.829 389.600 C 61.382 389.600,62.400 390.618,62.400 391.171 C 62.400 391.407,62.627 391.600,62.905 391.600 C 63.183 391.600,63.748 392.050,64.161 392.600 C 64.574 393.150,65.247 393.600,65.656 393.600 C 66.065 393.600,66.400 393.780,66.400 394.000 C 66.400 394.220,66.831 394.400,67.357 394.400 C 67.884 394.400,68.418 394.670,68.545 395.000 C 68.689 395.377,69.301 395.600,70.187 395.600 C 70.964 395.600,71.600 395.780,71.600 396.000 C 71.600 396.252,74.333 396.400,79.000 396.400 C 83.667 396.400,86.400 396.252,86.400 396.000 C 86.400 395.780,87.036 395.600,87.813 395.600 C 88.699 395.600,89.311 395.377,89.455 395.000 C 89.582 394.670,90.039 394.400,90.471 394.400 C 91.321 394.400,92.400 393.521,92.400 392.829 C 92.400 392.593,92.670 392.400,93.000 392.400 C 93.330 392.400,93.600 392.220,93.600 392.000 C 93.600 391.780,93.920 391.600,94.311 391.600 C 95.214 391.600,96.400 390.235,96.400 389.195 C 96.400 388.758,96.593 388.400,96.829 388.400 C 97.521 388.400,98.400 387.321,98.400 386.471 C 98.400 386.039,98.670 385.582,99.000 385.455 C 99.377 385.311,99.600 384.699,99.600 383.813 C 99.600 383.036,99.780 382.400,100.000 382.400 C 100.221 382.400,100.400 381.348,100.400 380.043 C 100.400 378.316,100.561 377.624,101.000 377.455 C 101.907 377.107,101.907 342.893,101.000 342.545 C 100.659 342.414,100.400 341.817,100.400 341.162 C 100.400 339.815,99.329 338.400,98.311 338.400 C 97.920 338.400,97.600 338.220,97.600 338.000 C 97.600 337.764,96.190 337.600,94.171 337.600 C 90.798 337.600,89.600 338.012,89.600 339.171 C 89.600 339.407,89.407 339.600,89.171 339.600 C 87.646 339.600,87.600 340.155,87.600 358.529 C 87.600 373.969,87.521 376.345,87.000 376.545 C 86.623 376.689,86.400 377.301,86.400 378.187 C 86.400 378.964,86.220 379.600,86.000 379.600 C 85.780 379.600,85.600 380.050,85.600 380.600 C 85.600 381.150,85.407 381.600,85.171 381.600 C 84.618 381.600,83.600 382.618,83.600 383.171 C 83.600 383.407,82.981 383.600,82.224 383.600 C 81.467 383.600,80.736 383.780,80.600 384.000 C 80.464 384.220,79.463 384.400,78.376 384.400 C 77.289 384.400,76.400 384.220,76.400 384.000 C 76.400 383.780,75.950 383.600,75.400 383.600 C 74.778 383.600,74.400 383.373,74.400 383.000 C 74.400 382.627,74.022 382.400,73.400 382.400 C 72.600 382.400,72.400 382.200,72.400 381.400 C 72.400 380.850,72.220 380.400,72.000 380.400 C 71.780 380.400,71.600 380.034,71.600 379.587 C 71.600 379.141,71.330 378.671,71.000 378.545 C 70.479 378.345,70.400 375.950,70.400 360.357 C 70.400 348.652,70.261 342.400,70.000 342.400 C 69.780 342.400,69.600 341.770,69.600 341.000 C 69.600 340.022,69.419 339.600,69.000 339.600 C 68.670 339.600,68.400 339.330,68.400 339.000 C 68.400 338.627,68.022 338.400,67.400 338.400 C 66.850 338.400,66.400 338.220,66.400 338.000 C 66.400 337.764,65.050 337.610,63.100 337.625 L 59.800 337.651 58.100 339.383 M29.600 350.000 C 29.600 350.220,30.230 350.400,31.000 350.400 C 31.978 350.400,32.400 350.581,32.400 351.000 C 32.400 351.330,32.670 351.600,33.000 351.600 C 33.373 351.600,33.600 351.978,33.600 352.600 C 33.600 353.150,33.780 353.600,34.000 353.600 C 34.222 353.600,34.400 354.659,34.400 355.976 C 34.400 357.283,34.220 358.464,34.000 358.600 C 33.780 358.736,33.600 359.107,33.600 359.424 C 33.600 360.405,32.063 361.600,30.800 361.600 C 30.140 361.600,29.600 361.780,29.600 362.000 C 29.600 362.248,27.467 362.400,24.000 362.400 L 18.400 362.400 18.400 356.000 L 18.400 349.600 24.000 349.600 C 27.467 349.600,29.600 349.752,29.600 350.000 " stroke="none" fill="#fcdc04" fill-rule="evenodd"></path><path id="path2" d="" stroke="none" fill="#4094a0" fill-rule="evenodd"></path><path id="path3" d="" stroke="none" fill="#4094a0" fill-rule="evenodd"></path><path id="path4" d="" stroke="none" fill="#4094a0" fill-rule="evenodd"></path></g></svg>